<svg xmlns="http://www.w3.org/2000/svg" viewBox="0 0 96 64" role="img"><rect width="96" height="64" rx="4" fill="#fff"/><rect width="96" height="64" fill="#fff"/><path d="M48 20a12 12 0 1 1 0 24 6 6 0 1 0 0-12 6 6 0 1 1 0-12Z" fill="#cd2e3a"/><path d="M48 44a12 12 0 1 1 0-24 6 6 0 1 0 0 12 6 6 0 1 1 0 12Z" fill="#0047a0"/><path d="M15 14l12 7m-14-3 12 7M69 43l12 7m-14-3 12 7" stroke="#000" stroke-width="3"/><rect x=".5" y=".5" width="95" height="63" rx="3.5" fill="none" stroke="#000" stroke-opacity=".16"/></svg>