<svg xmlns="http://www.w3.org/2000/svg" viewBox="0 0 96 64" role="img"><rect width="96" height="64" rx="4" fill="#fff"/><rect y="0" width="96" height="4.92308" fill="#012169"/><rect y="4.92308" width="96" height="4.92308" fill="#012169"/><rect y="9.84615" width="96" height="4.92308" fill="#012169"/><rect y="14.7692" width="96" height="4.92308" fill="#012169"/><rect y="19.6923" width="96" height="4.92308" fill="#012169"/><rect y="24.6154" width="96" height="4.92308" fill="#012169"/><rect y="29.5385" width="96" height="4.92308" fill="#012169"/><rect y="34.4615" width="96" height="4.92308" fill="#012169"/><rect y="39.3846" width="96" height="4.92308" fill="#012169"/><rect y="44.3077" width="96" height="4.92308" fill="#012169"/><rect y="49.2308" width="96" height="4.92308" fill="#012169"/><rect y="54.1538" width="96" height="4.92308" fill="#012169"/><rect y="59.0769" width="96" height="4.92308" fill="#012169"/><rect width="40" height="35" fill="#012169"/><path d="M0 0 40 28M40 0 0 28" stroke="#fff" stroke-width="7"/><path d="M0 0 40 28M40 0 0 28" stroke="#c8102e" stroke-width="3"/><path d="M20 0v28M0 14h40" stroke="#fff" stroke-width="9"/><path d="M20 0v28M0 14h40" stroke="#c8102e" stroke-width="4"/><circle cx="69" cy="35" r="4" fill="#cc142b" stroke="#fff"/><circle cx="79" cy="17" r="3" fill="#cc142b" stroke="#fff"/><circle cx="58" cy="51" r="3" fill="#cc142b" stroke="#fff"/><rect x=".5" y=".5" width="95" height="63" rx="3.5" fill="none" stroke="#000" stroke-opacity=".16"/></svg>