<svg xmlns="http://www.w3.org/2000/svg" viewBox="0 0 96 64" role="img"><rect width="96" height="64" rx="4" fill="#fff"/><rect y="0" width="96" height="4.92308" fill="#b22234"/><rect y="4.92308" width="96" height="4.92308" fill="#fff"/><rect y="9.84615" width="96" height="4.92308" fill="#b22234"/><rect y="14.7692" width="96" height="4.92308" fill="#fff"/><rect y="19.6923" width="96" height="4.92308" fill="#b22234"/><rect y="24.6154" width="96" height="4.92308" fill="#fff"/><rect y="29.5385" width="96" height="4.92308" fill="#b22234"/><rect y="34.4615" width="96" height="4.92308" fill="#fff"/><rect y="39.3846" width="96" height="4.92308" fill="#b22234"/><rect y="44.3077" width="96" height="4.92308" fill="#fff"/><rect y="49.2308" width="96" height="4.92308" fill="#b22234"/><rect y="54.1538" width="96" height="4.92308" fill="#fff"/><rect y="59.0769" width="96" height="4.92308" fill="#b22234"/><rect width="40" height="35" fill="#24478f"/><circle cx="6" cy="6" r="1.1" fill="#fff"/><circle cx="14" cy="6" r="1.1" fill="#fff"/><circle cx="22" cy="6" r="1.1" fill="#fff"/><circle cx="30" cy="6" r="1.1" fill="#fff"/><circle cx="38" cy="6" r="1.1" fill="#fff"/><circle cx="6" cy="15" r="1.1" fill="#fff"/><circle cx="14" cy="15" r="1.1" fill="#fff"/><circle cx="22" cy="15" r="1.1" fill="#fff"/><circle cx="30" cy="15" r="1.1" fill="#fff"/><circle cx="38" cy="15" r="1.1" fill="#fff"/><circle cx="6" cy="24" r="1.1" fill="#fff"/><circle cx="14" cy="24" r="1.1" fill="#fff"/><circle cx="22" cy="24" r="1.1" fill="#fff"/><circle cx="30" cy="24" r="1.1" fill="#fff"/><circle cx="38" cy="24" r="1.1" fill="#fff"/><circle cx="6" cy="31" r="1.1" fill="#fff"/><circle cx="14" cy="31" r="1.1" fill="#fff"/><circle cx="22" cy="31" r="1.1" fill="#fff"/><circle cx="30" cy="31" r="1.1" fill="#fff"/><circle cx="38" cy="31" r="1.1" fill="#fff"/><rect x=".5" y=".5" width="95" height="63" rx="3.5" fill="none" stroke="#000" stroke-opacity=".16"/></svg>