<svg xmlns="http://www.w3.org/2000/svg" viewBox="0 0 128 128" role="img" aria-label="FINAL">
<defs><linearGradient id="bg" x1="0" y1="0" x2="1" y2="1"><stop stop-color="#F1F5FF"/><stop offset="1" stop-color="#7E8BAA"/></linearGradient><linearGradient id="gold" x1="0" y1="0" x2="1" y2="1"><stop stop-color="#FFF5B3"/><stop offset=".45" stop-color="#FFD34D"/><stop offset="1" stop-color="#E79000"/></linearGradient><filter id="shadow"><feDropShadow dx="0" dy="5" stdDeviation="6" flood-opacity=".28"/></filter></defs>
<rect width="128" height="128" rx="28" fill="url(#bg)"/><circle cx="102" cy="20" r="34" fill="white" opacity=".12"/><circle cx="18" cy="112" r="38" fill="#001533" opacity=".12"/><g filter="url(#shadow)"><path d="M47 34h34v20c0 15-8 26-17 26S47 69 47 54Z" fill="url(#gold)" stroke="rgba(255,255,255,.8)" stroke-width="3"/><path d="M47 42H34v9c0 10 7 17 17 18M81 42h13v9c0 10-7 17-17 18" fill="none" stroke="rgba(255,255,255,.72)" stroke-width="4" stroke-linecap="round"/><path d="M64 80v12M49 98h30" stroke="rgba(255,255,255,.8)" stroke-width="5" stroke-linecap="round"/></g>
<rect x="18" y="104" width="92" height="12" rx="6" fill="rgba(4,22,45,.34)"/><text x="64" y="113" text-anchor="middle" font-family="Arial,Helvetica,sans-serif" font-size="8" font-weight="800" fill="white" letter-spacing="1">FINAL</text></svg>