<svg xmlns="http://www.w3.org/2000/svg" viewBox="0 0 128 128" role="img" aria-label="GLOVE">
<defs><linearGradient id="bg" x1="0" y1="0" x2="1" y2="1"><stop stop-color="#A7F0FF"/><stop offset="1" stop-color="#287CFF"/></linearGradient><linearGradient id="gold" x1="0" y1="0" x2="1" y2="1"><stop stop-color="#FFF5B3"/><stop offset=".45" stop-color="#FFD34D"/><stop offset="1" stop-color="#E79000"/></linearGradient><filter id="shadow"><feDropShadow dx="0" dy="5" stdDeviation="6" flood-opacity=".28"/></filter></defs>
<rect width="128" height="128" rx="28" fill="url(#bg)"/><circle cx="102" cy="20" r="34" fill="white" opacity=".12"/><circle cx="18" cy="112" r="38" fill="#001533" opacity=".12"/><g filter="url(#shadow)"><path d="M45 86V50c0-6 8-7 10-2V36c0-7 9-8 11-2v13-17c0-7 10-7 11 0v18-14c0-7 9-7 10 0v20l7-8c5-6 14 0 10 7L88 86Z" fill="url(#gold)" stroke="rgba(255,255,255,.8)" stroke-width="3"/></g>
<rect x="18" y="104" width="92" height="12" rx="6" fill="rgba(4,22,45,.34)"/><text x="64" y="113" text-anchor="middle" font-family="Arial,Helvetica,sans-serif" font-size="8" font-weight="800" fill="white" letter-spacing="1">GLOVE</text></svg>