<svg xmlns="http://www.w3.org/2000/svg" viewBox="0 0 128 128" role="img" aria-label="BOOT">
<defs><linearGradient id="bg" x1="0" y1="0" x2="1" y2="1"><stop stop-color="#FFB36A"/><stop offset="1" stop-color="#E6542C"/></linearGradient><linearGradient id="gold" x1="0" y1="0" x2="1" y2="1"><stop stop-color="#FFF5B3"/><stop offset=".45" stop-color="#FFD34D"/><stop offset="1" stop-color="#E79000"/></linearGradient><filter id="shadow"><feDropShadow dx="0" dy="5" stdDeviation="6" flood-opacity=".28"/></filter></defs>
<rect width="128" height="128" rx="28" fill="url(#bg)"/><circle cx="102" cy="20" r="34" fill="white" opacity=".12"/><circle cx="18" cy="112" r="38" fill="#001533" opacity=".12"/><g filter="url(#shadow)"><path d="M38 76c13-5 20-17 20-33h18c1 17 6 25 17 31 6 3 8 10 3 14-5 4-17 6-32 6H42c-9 0-12-13-4-18Z" fill="url(#gold)" stroke="rgba(255,255,255,.8)" stroke-width="3"/><path d="M61 47h16M60 54h18M58 61h21" stroke="rgba(120,70,0,.45)" stroke-width="3" stroke-linecap="round"/></g>
<rect x="18" y="104" width="92" height="12" rx="6" fill="rgba(4,22,45,.34)"/><text x="64" y="113" text-anchor="middle" font-family="Arial,Helvetica,sans-serif" font-size="8" font-weight="800" fill="white" letter-spacing="1">BOOT</text></svg>